<?xml version="1.0" encoding="UTF-8" standalone="no"?>
<!-- Created with Inkscape (http://www.inkscape.org/) -->

<svg
   width="299.1803mm"
   height="195.66621mm"
   viewBox="0 0 299.1803 195.66621"
   version="1.1"
   id="svg1"
   xml:space="preserve"
   xmlns="http://www.w3.org/2000/svg"
   xmlns:svg="http://www.w3.org/2000/svg"><defs
     id="defs1"><filter
       style="color-interpolation-filters:sRGB"
       id="filter29"
       x="-0.15807671"
       y="-0.13640233"
       width="1.3161389"
       height="1.2728047"><feGaussianBlur
         stdDeviation="3.2939134"
         id="feGaussianBlur29" /></filter><filter
       style="color-interpolation-filters:sRGB"
       id="filter30"
       x="-0.15807671"
       y="-0.13640233"
       width="1.3161389"
       height="1.2728047"><feGaussianBlur
         stdDeviation="3.2939134"
         id="feGaussianBlur30" /></filter><filter
       style="color-interpolation-filters:sRGB"
       id="filter38"
       x="-0.21469187"
       y="-0.10871788"
       width="1.4293794"
       height="1.2174409"><feGaussianBlur
         stdDeviation="5.4474874"
         id="feGaussianBlur38" /></filter></defs><g
     id="layer1"
     transform="translate(-686.83401,-1957.1293)"><text
       xml:space="preserve"
       style="font-size:70.5556px;font-family:Coolvetica;-inkscape-font-specification:Coolvetica;text-align:start;letter-spacing:0px;writing-mode:lr-tb;direction:ltr;text-anchor:start;fill:#ffffff;fill-opacity:1;stroke-width:5.41319;paint-order:markers stroke fill"
       x="830.72131"
       y="2088.1235"
       id="text4"><tspan
         id="tspan4"
         x="830.72131"
         y="2088.1235"
         style="font-style:normal;font-variant:normal;font-weight:900;font-stretch:normal;font-size:70.5556px;font-family:Nexa;-inkscape-font-specification:'Nexa Heavy';letter-spacing:0px;fill:#ffffff;fill-opacity:1;stroke-width:5.41322">DAP</tspan></text><g
       id="g39"
       transform="translate(282.02083,316.14913)"><g
         id="g20"
         style="opacity:0.2;stroke:#000000;stroke-opacity:1;filter:url(#filter38)"><path
           style="fill:none;stroke:#000000;stroke-width:8.79982;stroke-linecap:round;stroke-linejoin:round;stroke-dasharray:none;stroke-opacity:1;paint-order:markers stroke fill"
           d="m 453.70237,1723.1077 4.23908,-11.8197 -11.26617,-6.1192 c 4.70776,-13.1028 22.94957,-17.0185 22.94957,-17.0185 -1.58481,-48.0726 59.16248,-29.0469 56.18835,-3.9508"
           id="path15" /><path
           style="fill:none;stroke:#000000;stroke-width:8.79982;stroke-linecap:round;stroke-linejoin:round;stroke-dasharray:none;stroke-opacity:1;paint-order:markers stroke fill"
           d="m 473.2671,1811.3303 c 0,0 -0.5915,-15.5233 -15.46086,-20.6686 -20.87705,-7.2242 -10.89178,-21.9375 -10.89178,-21.9375 0,0 20.20418,2.1822 25.19091,9.4078"
           id="path18" /><path
           style="fill:none;stroke:#000000;stroke-width:8.79982;stroke-linecap:round;stroke-linejoin:round;stroke-dasharray:none;stroke-opacity:1;paint-order:markers stroke fill"
           d="m 509.96506,1819.1726 c -8.94266,-64.6444 -8.91222,-83.5703 15.84814,-134.9731"
           id="path19" /><path
           style="fill:none;stroke:#000000;stroke-width:8.79977;stroke-linecap:round;stroke-linejoin:round;stroke-dasharray:none;stroke-opacity:1;paint-order:markers stroke fill"
           d="m 453.70237,1723.1077 c 0,0 25.68099,10.0081 24.53043,22.5342"
           id="path20" /></g><g
         id="g32"><path
           style="fill:none;stroke:#04ff60;stroke-width:8.79982;stroke-linecap:round;stroke-linejoin:round;stroke-dasharray:none;stroke-opacity:1;paint-order:markers stroke fill"
           d="m 453.70237,1723.1077 4.23908,-11.8197 -11.26617,-6.1192 c 4.70776,-13.1028 22.94957,-17.0185 22.94957,-17.0185 -1.58481,-48.0726 59.16248,-29.0469 56.18835,-3.9508"
           id="path21" /><path
           style="fill:none;stroke:#04ff60;stroke-width:8.79982;stroke-linecap:round;stroke-linejoin:round;stroke-dasharray:none;stroke-opacity:1;paint-order:markers stroke fill"
           d="m 473.2671,1811.3303 c 0,0 -0.5915,-15.5233 -15.46086,-20.6686 -20.87705,-7.2242 -10.89178,-21.9375 -10.89178,-21.9375 0,0 20.20418,2.1822 25.19091,9.4078"
           id="path22" /><path
           style="fill:none;stroke:#04ff60;stroke-width:8.79982;stroke-linecap:round;stroke-linejoin:round;stroke-dasharray:none;stroke-opacity:1;paint-order:markers stroke fill"
           d="m 509.96506,1819.1726 c -8.94266,-64.6444 -8.91222,-83.5703 15.84814,-134.9731"
           id="path31" /><path
           style="fill:none;stroke:#04ff60;stroke-width:8.79977;stroke-linecap:round;stroke-linejoin:round;stroke-dasharray:none;stroke-opacity:1;paint-order:markers stroke fill"
           d="m 453.70237,1723.1077 c 0,0 25.68099,10.0081 24.53043,22.5342"
           id="path32" /></g><path
         style="opacity:0.3;fill:none;fill-opacity:1;stroke:#000000;stroke-width:8.79977;stroke-linecap:round;stroke-linejoin:round;stroke-dasharray:none;stroke-opacity:1;paint-order:markers stroke fill;filter:url(#filter30)"
         d="m 417.1185,1728.0678 c 51.83068,25.0868 78.73543,31.0549 77.82116,90.2131"
         id="path33" /><path
         style="fill:none;fill-opacity:1;stroke:#ffffff;stroke-width:8.79977;stroke-linecap:round;stroke-linejoin:round;stroke-dasharray:none;stroke-opacity:1;paint-order:markers stroke fill"
         d="m 417.1185,1728.0678 c 51.83068,25.0868 78.73543,31.0549 77.82116,90.2131"
         id="path34" /><path
         style="opacity:0.502513;fill:none;fill-opacity:1;stroke:#ffffff;stroke-width:8.79977;stroke-linecap:round;stroke-linejoin:round;stroke-dasharray:none;stroke-opacity:1;paint-order:markers stroke fill;filter:url(#filter29)"
         d="m 417.1185,1728.0678 c 51.83068,25.0868 78.73543,31.0549 77.82116,90.2131"
         id="path39" /></g></g></svg>
