<?xml version="1.0" encoding="UTF-8" standalone="no"?>
<!-- Created with Inkscape (http://www.inkscape.org/) -->

<svg
   width="306.17999mm"
   height="195.66621mm"
   viewBox="0 0 306.17999 195.66621"
   version="1.1"
   id="svg1"
   xml:space="preserve"
   sodipodi:docname="dap-logo-abreviated.svg"
   inkscape:version="1.4.2 (f4327f4, 2025-05-13)"
   xmlns:inkscape="http://www.inkscape.org/namespaces/inkscape"
   xmlns:sodipodi="http://sodipodi.sourceforge.net/DTD/sodipodi-0.dtd"
   xmlns="http://www.w3.org/2000/svg"
   xmlns:svg="http://www.w3.org/2000/svg"><sodipodi:namedview
     id="namedview1"
     pagecolor="#ffffff"
     bordercolor="#000000"
     borderopacity="0.25"
     inkscape:showpageshadow="2"
     inkscape:pageopacity="0.0"
     inkscape:pagecheckerboard="0"
     inkscape:deskcolor="#d1d1d1"
     inkscape:document-units="mm"
     inkscape:zoom="0.26131608"
     inkscape:cx="575.93087"
     inkscape:cy="292.74891"
     inkscape:window-width="1920"
     inkscape:window-height="991"
     inkscape:window-x="-9"
     inkscape:window-y="-9"
     inkscape:window-maximized="1"
     inkscape:current-layer="layer1" /><defs
     id="defs1"><filter
       style="color-interpolation-filters:sRGB"
       id="filter29"
       x="-0.1580767"
       y="-0.13640232"
       width="1.3161389"
       height="1.2728047"><feGaussianBlur
         stdDeviation="3.2939134"
         id="feGaussianBlur29" /></filter><filter
       style="color-interpolation-filters:sRGB"
       id="filter30"
       x="-0.1580767"
       y="-0.13640232"
       width="1.3161389"
       height="1.2728047"><feGaussianBlur
         stdDeviation="3.2939134"
         id="feGaussianBlur30" /></filter><filter
       style="color-interpolation-filters:sRGB"
       id="filter38"
       x="-0.21469188"
       y="-0.10871788"
       width="1.4293793"
       height="1.2174408"><feGaussianBlur
         stdDeviation="5.4474874"
         id="feGaussianBlur38" /></filter></defs><g
     id="layer1"
     transform="translate(-686.83401,-1957.1293)"><path
       style="font-weight:900;font-size:70.5556px;font-family:Nexa;-inkscape-font-specification:'Nexa Heavy';letter-spacing:0px;fill:#ffffff;stroke-width:5.41322;paint-order:markers stroke fill"
       d="m 856.333,2038.7346 q 7.62,0 13.33501,3.0339 5.78556,3.0339 8.89,8.6783 3.175,5.5739 3.175,12.9823 0,7.4083 -3.175,13.0528 -3.10444,5.5739 -8.89,8.6077 -5.71501,3.0339 -13.33501,3.0339 h -20.24946 v -49.3889 z m 0,39.2995 q 6.20889,0 10.01889,-3.9511 3.81001,-3.9511 3.81001,-10.6539 0,-4.445 -1.76389,-7.6906 -1.69334,-3.3161 -4.86834,-5.08 -3.10445,-1.8344 -7.19667,-1.8344 h -8.67834 v 29.21 z m 69.77953,10.0894 -3.66889,-8.89 h -24.34168 l -3.6689,8.89 h -12.34723 l 22.15446,-49.3889 h 12.34723 l 22.01335,49.3889 z m -15.7339,-38.3117 -8.11389,19.4734 h 16.08667 z m 56.72675,-11.0772 q 5.715,0 9.94834,2.1872 4.30389,2.1167 6.63222,6.1384 2.32834,4.0216 2.32834,9.3839 0,5.3622 -2.32834,9.3839 -2.32833,4.0216 -6.63222,6.2089 -4.23334,2.1166 -9.94834,2.1166 h -12.06501 v 13.97 h -11.57112 v -49.3889 z m -0.56445,25.3295 q 3.66889,0 5.78556,-2.0461 2.18723,-2.0462 2.18723,-5.5034 0,-3.4572 -2.18723,-5.5033 -2.11667,-2.0461 -5.78556,-2.0461 h -11.57112 v 15.0989 z"
       id="text4"
       aria-label="DAP" /><g
       id="g39"
       transform="translate(282.02083,316.14913)"><g
         id="g32"><path
           style="fill:none;stroke:#04ff60;stroke-width:8.79982;stroke-linecap:round;stroke-linejoin:round;stroke-dasharray:none;stroke-opacity:1;paint-order:markers stroke fill"
           d="m 453.70237,1723.1077 4.23908,-11.8197 -11.26617,-6.1192 c 4.70776,-13.1028 22.94957,-17.0185 22.94957,-17.0185 -1.58481,-48.0726 59.16248,-29.0469 56.18835,-3.9508"
           id="path21" /><path
           style="fill:none;stroke:#04ff60;stroke-width:8.79982;stroke-linecap:round;stroke-linejoin:round;stroke-dasharray:none;stroke-opacity:1;paint-order:markers stroke fill"
           d="m 473.2671,1811.3303 c 0,0 -0.5915,-15.5233 -15.46086,-20.6686 -20.87705,-7.2242 -10.89178,-21.9375 -10.89178,-21.9375 0,0 20.20418,2.1822 25.19091,9.4078"
           id="path22" /><path
           style="fill:none;stroke:#04ff60;stroke-width:8.79982;stroke-linecap:round;stroke-linejoin:round;stroke-dasharray:none;stroke-opacity:1;paint-order:markers stroke fill"
           d="m 509.96506,1819.1726 c -8.94266,-64.6444 -8.91222,-83.5703 15.84814,-134.9731"
           id="path31" /><path
           style="fill:none;stroke:#04ff60;stroke-width:8.79977;stroke-linecap:round;stroke-linejoin:round;stroke-dasharray:none;stroke-opacity:1;paint-order:markers stroke fill"
           d="m 453.70237,1723.1077 c 0,0 25.68099,10.0081 24.53043,22.5342"
           id="path32" /></g><path
         style="fill:none;fill-opacity:1;stroke:#ffffff;stroke-width:8.79977;stroke-linecap:round;stroke-linejoin:round;stroke-dasharray:none;stroke-opacity:1;paint-order:markers stroke fill"
         d="m 417.1185,1728.0678 c 51.83068,25.0868 78.73543,31.0549 77.82116,90.2131"
         id="path34" /></g></g></svg>
