<?xml version="1.0" encoding="UTF-8" standalone="no"?>
<!-- Created with Inkscape (http://www.inkscape.org/) -->

<svg
   width="512"
   height="113.26698"
   viewBox="0 0 512 113.26698"
   version="1.1"
   id="svg1"
   xml:space="preserve"
   xmlns="http://www.w3.org/2000/svg"
   xmlns:svg="http://www.w3.org/2000/svg"><defs
     id="defs1"><filter
       style="color-interpolation-filters:sRGB"
       id="filter20"
       x="-0.24198221"
       y="-0.24198221"
       width="1.4839644"
       height="1.4839644"><feGaussianBlur
         stdDeviation="13.22226"
         id="feGaussianBlur20" /></filter><filter
       style="color-interpolation-filters:sRGB"
       id="filter26"
       x="-0.13498002"
       y="-0.090008856"
       width="1.26996"
       height="1.1800177"><feGaussianBlur
         stdDeviation="14.76299"
         id="feGaussianBlur26" /></filter><filter
       style="color-interpolation-filters:sRGB"
       id="filter27"
       x="-0.096119614"
       y="-0.096119614"
       width="1.1922392"
       height="1.1922392"><feGaussianBlur
         stdDeviation="5.2521158"
         id="feGaussianBlur27" /></filter></defs><g
     id="layer1"
     transform="translate(2.7522445e-5,-155.65382)"><g
       id="g1"
       transform="matrix(0.24384535,0,0,0.24384535,-726.70854,-3129.8522)"><g
         id="g94"
         transform="translate(-22960.28,131.30263)"><circle
           style="opacity:0.301887;fill:#000000;fill-opacity:1;stroke-width:10;paint-order:markers stroke fill;filter:url(#filter27)"
           id="circle92"
           cx="-2927.6296"
           cy="-8445.3027"
           r="65.569748"
           transform="rotate(180,11555.078,2564.6364)" /><path
           id="path92"
           style="opacity:0.2;fill:#000000;fill-opacity:1;stroke-width:10;paint-order:markers stroke fill;filter:url(#filter26)"
           d="m 26169.139,13771.498 c 36.214,0 65.571,-29.357 65.57,-65.571 v -0.744 c -0.161,-14.264 2.859,-33.495 13.012,-43.648 l 8.17,-8.17 c 10.154,-10.154 29.386,-13.173 43.65,-13.012 0.248,0 0.495,0 0.743,0 15.738,0 30.148,-5.589 41.449,-14.832 0.127,-0.103 0.262,-0.195 0.389,-0.299 1.171,-0.973 2.28,-2.011 3.38,-3.062 0.443,-0.419 0.92,-0.793 1.352,-1.225 0.234,-0.234 0.467,-0.47 0.697,-0.707 11.861,-12.224 18.509,-28.597 18.51,-45.656 0,-36.214 -29.357,-65.571 -65.57,-65.57 -0.248,0 -0.497,0 -0.744,0 -14.265,0.161 -33.497,-2.859 -43.651,-13.012 l -8.17,-8.17 c -10.153,-10.154 -13.173,-29.386 -13.012,-43.651 v -0.742 c 0,-36.212 -29.355,-65.57 -65.568,-65.57 -36.214,0 -65.57,29.357 -65.57,65.57 0,36.213 29.356,65.57 65.568,65.571 0.248,0 0.497,0 0.744,0 14.265,-0.162 33.497,2.856 43.651,13.009 l 8.17,8.17 c 9.267,9.267 12.591,26.098 12.978,39.811 -0.114,1.583 -0.174,3.182 -0.174,4.795 v 0.744 c 0.162,14.265 -2.856,33.495 -13.009,43.648 l -8.172,8.17 c -10.154,10.154 -29.384,13.173 -43.649,13.012 -0.247,0 -0.496,0 -0.744,0 -36.214,0 -65.571,29.357 -65.57,65.57 0,17.39 6.91,34.067 19.207,46.364 12.296,12.297 28.973,19.206 46.363,19.207 z" /><path
           id="path93"
           style="fill:#04ff60;fill-opacity:1;stroke-width:10;paint-order:markers stroke fill"
           d="m 26169.139,13771.498 c 36.214,0 65.571,-29.357 65.57,-65.571 v -0.744 c -0.161,-14.264 2.859,-33.495 13.012,-43.648 l 8.17,-8.17 c 10.154,-10.154 29.386,-13.173 43.65,-13.012 0.248,0 0.495,0 0.743,0 15.738,0 30.148,-5.589 41.449,-14.832 0.127,-0.103 0.262,-0.195 0.389,-0.299 1.171,-0.973 2.28,-2.011 3.38,-3.062 0.443,-0.419 0.92,-0.793 1.352,-1.225 0.234,-0.234 0.467,-0.47 0.697,-0.707 11.861,-12.224 18.509,-28.597 18.51,-45.656 0,-36.214 -29.357,-65.571 -65.57,-65.57 -0.248,0 -0.497,0 -0.744,0 -14.265,0.161 -33.497,-2.859 -43.651,-13.012 l -8.17,-8.17 c -10.153,-10.154 -13.173,-29.386 -13.012,-43.651 v -0.742 c 0,-36.212 -29.355,-65.57 -65.568,-65.57 -36.214,0 -65.57,29.357 -65.57,65.57 0,36.213 29.356,65.57 65.568,65.571 0.248,0 0.497,0 0.744,0 14.265,-0.162 33.497,2.856 43.651,13.009 l 8.17,8.17 c 9.267,9.267 12.591,26.098 12.978,39.811 -0.114,1.583 -0.174,3.182 -0.174,4.795 v 0.744 c 0.162,14.265 -2.856,33.495 -13.009,43.648 l -8.172,8.17 c -10.154,10.154 -29.384,13.173 -43.649,13.012 -0.247,0 -0.496,0 -0.744,0 -36.214,0 -65.571,29.357 -65.57,65.57 0,17.39 6.91,34.067 19.207,46.364 12.296,12.297 28.973,19.206 46.363,19.207 z" /><circle
           style="fill:#fffffe;fill-opacity:1;stroke-width:10;paint-order:markers stroke fill"
           id="circle93"
           cx="-26037.783"
           cy="-13574.575"
           r="65.569748"
           transform="scale(-1)" /><circle
           style="opacity:0.5;fill:#fffffe;fill-opacity:1;stroke-width:10;paint-order:markers stroke fill;filter:url(#filter20)"
           id="circle94"
           cx="-2927.6296"
           cy="-8445.3027"
           r="65.569748"
           transform="rotate(180,11555.078,2564.6364)" /></g><text
         xml:space="preserve"
         style="font-size:266.667px;font-family:Coolvetica;-inkscape-font-specification:Coolvetica;text-align:start;letter-spacing:0px;writing-mode:lr-tb;direction:ltr;text-anchor:start;fill:#04ff60;fill-opacity:1;stroke-width:20.4593;paint-order:markers stroke fill"
         x="3550.9358"
         y="13801.993"
         id="text39"><tspan
           id="tspan39"
           x="3550.9358"
           y="13801.993"
           style="font-style:normal;font-variant:normal;font-weight:900;font-stretch:normal;font-size:266.667px;font-family:Nexa;-inkscape-font-specification:'Nexa Heavy';letter-spacing:0px;fill:#04ff60;fill-opacity:1;stroke-width:20.4594">MEIA</tspan></text><path
         id="path41"
         style="font-weight:900;font-size:266.667px;font-family:Nexa;-inkscape-font-specification:'Nexa Heavy';letter-spacing:0px;fill:#fffffe;stroke-width:20.4594;paint-order:markers stroke fill"
         d="m 4680.0911,13619.066 c -1.3527,0.03 -2.7941,0.07 -4.0156,0.113 -13.9807,0.584 -27.9622,3.741 -40.4678,10.12 -9.8769,4.942 -18.8855,11.744 -25.9438,20.271 -6.0704,7.25 -10.8585,15.562 -14.1216,24.435 -0.3005,0.817 -0.681,1.894 -0.9832,2.825 -1.1851,3.61 -2.1342,7.296 -2.8645,11.025 -0.1752,0.93 -0.3963,2.135 -0.5625,3.174 -0.6662,4.076 -1.0655,8.228 -1.2539,12.322 -0.019,0.544 -0.056,1.516 -0.069,2.116 -0.084,3.268 -0.048,6.487 0.1268,9.706 0.2541,4.772 0.833,9.616 1.7057,14.243 0.2211,1.136 0.5054,2.516 0.789,3.739 2.665,11.59 7.6243,22.709 14.9338,32.124 7.5029,9.796 17.3776,17.705 28.4656,23.091 1.8832,0.917 3.9081,1.828 5.748,2.563 13.7322,5.584 28.7059,7.594 43.4629,7.277 5.4772,-0.122 10.9462,-0.655 16.337,-1.636 0.403,-0.08 1.179,-0.227 1.7248,-0.334 12.8948,-2.569 25.1866,-8.028 35.7763,-15.816 1.6829,-1.224 3.3191,-2.512 4.9208,-3.84 -4.9902,-5.562 -9.9805,-11.123 -14.9707,-16.684 -14.8695,11.607 -34.2973,16.73 -52.9961,15.148 -11.9012,-0.977 -23.7629,-4.807 -33.3181,-12.105 -10.8861,-8.219 -18.76,-20.253 -22.1365,-33.453 -3.0771,-11.598 -3.3225,-23.857 -1.3402,-35.661 1.9544,-10.993 6.4691,-21.658 13.7659,-30.181 9.5113,-11.252 23.3358,-18.55 37.8525,-20.727 10.1286,-1.585 20.5993,-1.169 30.5291,1.414 8.6476,2.289 16.8339,6.323 23.8895,11.825 5.2559,-5.256 10.5117,-10.511 15.7676,-15.766 -9.966,-8.426 -21.7171,-14.83 -34.3613,-18.16 -8.5195,-2.291 -17.5276,-3.27 -26.3907,-3.168 z m -298.1718,4.266 c -22.8086,0 -45.6172,0 -68.4258,0 0,56.887 0,113.774 0,170.662 24.1158,-0.01 48.2325,0.05 72.3477,-0.07 0.8698,-0.03 1.6816,-0.04 2.4507,-0.09 6.5269,-0.298 13.0305,-1.156 19.3988,-2.623 0.6621,-0.159 1.6317,-0.384 2.408,-0.592 14.1468,-3.662 27.5224,-10.848 37.7502,-21.367 0.2854,-0.297 0.8503,-0.895 1.2403,-1.31 7.795,-8.559 13.4731,-18.962 16.8301,-30.022 0.4537,-1.481 0.9233,-3.189 1.3106,-4.778 0.6327,-2.544 1.1204,-5.123 1.5429,-7.71 0.058,-0.382 0.1714,-1.188 0.2506,-1.733 0.4522,-3.319 0.7485,-6.667 0.888,-9.952 0.337,-8.351 -0.1144,-16.755 -1.6875,-24.971 -1.4411,-7.643 -3.9537,-15.248 -7.5375,-22.223 -4.9753,-9.944 -12.0481,-18.902 -20.9254,-25.643 -11.0782,-8.445 -24.3781,-13.761 -38.086,-16.008 -2.7533,-0.463 -5.4895,-0.811 -8.2166,-1.059 -3.8318,-0.361 -7.707,-0.522 -11.5391,-0.512 z m 133.9746,170.662 c 9.2441,0 18.4882,0 27.7324,0 0,-56.89 0,-113.779 0,-170.668 -9.2442,0 -18.4883,0 -27.7324,0 0,56.889 0,113.778 0,170.668 z m 272.2675,0 c 40.5332,0 81.0665,0 121.5997,0 0,-7.823 0,-15.645 0,-23.467 -31.2891,0 -62.5782,0 -93.8672,0 0,-49.067 0,-98.134 0,-147.201 -9.2442,0 -18.4883,0 -27.7325,0 0,56.889 0,113.778 0,170.668 z m 162.3987,0 c 43.111,0 86.222,0 129.334,0 0,-6.934 0,-13.868 0,-20.801 -34.311,0 -68.623,0 -102.934,0 0,-18.756 0,-37.512 0,-56.268 31.556,0 63.112,0 94.668,0 0,-6.399 0,-12.799 0,-19.199 -31.556,0 -63.112,0 -94.668,0 0,-17.956 0,-35.911 0,-53.867 33.334,0 66.667,0 100,0 0,-6.844 0,-13.689 0,-20.533 -42.133,0 -84.267,0 -126.4,0 0,56.889 0,113.778 0,170.668 z m -583.678,-148.539 c 6.5505,0.04 13.1055,-0.06 19.6524,0.163 10.1738,0.571 20.2502,3.619 28.8503,9.126 8.789,5.387 15.7646,13.511 20.1859,22.79 4.6592,9.356 6.6227,19.862 6.7136,30.261 0.09,10.403 -1.4879,20.961 -5.76,30.51 -4.3258,9.864 -11.5968,18.398 -20.6392,24.249 -7.1109,4.657 -15.317,7.536 -23.7325,8.629 -5.5957,0.793 -11.2589,0.735 -16.8962,0.688 -11.3435,0 -22.687,0 -34.0305,0 0,-42.134 0,-84.269 0,-126.403 8.5507,0 17.1182,0 25.6562,-0.01 z" /></g></g></svg>
