<?xml version="1.0" encoding="UTF-8" standalone="no"?>
<!-- Created with Inkscape (http://www.inkscape.org/) -->

<svg
   width="461.00977"
   height="464.50391"
   viewBox="0 0 461.00977 464.50391"
   version="1.1"
   id="svg1"
   xml:space="preserve"
   xmlns="http://www.w3.org/2000/svg"
   xmlns:svg="http://www.w3.org/2000/svg"><defs
     id="defs1"><filter
       style="color-interpolation-filters:sRGB"
       id="filter20"
       x="-0.24198221"
       y="-0.24198221"
       width="1.4839644"
       height="1.4839644"><feGaussianBlur
         stdDeviation="13.22226"
         id="feGaussianBlur20" /></filter><filter
       style="color-interpolation-filters:sRGB"
       id="filter26"
       x="-0.13498002"
       y="-0.090008856"
       width="1.26996"
       height="1.1800177"><feGaussianBlur
         stdDeviation="14.76299"
         id="feGaussianBlur26" /></filter><filter
       style="color-interpolation-filters:sRGB"
       id="filter27"
       x="-0.096119614"
       y="-0.096119614"
       width="1.1922392"
       height="1.1922392"><feGaussianBlur
         stdDeviation="5.2521158"
         id="feGaussianBlur27" /></filter></defs><g
     id="layer1"
     transform="translate(-2105.8945,-14295.048)"><g
       id="g34"
       transform="translate(-23834.588,952.62216)"><circle
         style="opacity:0.301887;fill:#000000;fill-opacity:1;stroke-width:10;paint-order:markers stroke fill;filter:url(#filter27)"
         id="circle1"
         cx="-2927.6296"
         cy="-8445.3027"
         r="65.569748"
         transform="rotate(180,11555.078,2564.6364)" /><path
         id="path24"
         style="opacity:0.2;fill:#000000;fill-opacity:1;stroke-width:10;paint-order:markers stroke fill;filter:url(#filter26)"
         d="m 26169.139,13771.498 c 36.214,0 65.571,-29.357 65.57,-65.571 v -0.744 c -0.161,-14.264 2.859,-33.495 13.012,-43.648 l 8.17,-8.17 c 10.154,-10.154 29.386,-13.173 43.65,-13.012 0.248,0 0.495,0 0.743,0 15.738,0 30.148,-5.589 41.449,-14.832 0.127,-0.103 0.262,-0.195 0.389,-0.299 1.171,-0.973 2.28,-2.011 3.38,-3.062 0.443,-0.419 0.92,-0.793 1.352,-1.225 0.234,-0.234 0.467,-0.47 0.697,-0.707 11.861,-12.224 18.509,-28.597 18.51,-45.656 0,-36.214 -29.357,-65.571 -65.57,-65.57 -0.248,0 -0.497,0 -0.744,0 -14.265,0.161 -33.497,-2.859 -43.651,-13.012 l -8.17,-8.17 c -10.153,-10.154 -13.173,-29.386 -13.012,-43.651 v -0.742 c 0,-36.212 -29.355,-65.57 -65.568,-65.57 -36.214,0 -65.57,29.357 -65.57,65.57 0,36.213 29.356,65.57 65.568,65.571 0.248,0 0.497,0 0.744,0 14.265,-0.162 33.497,2.856 43.651,13.009 l 8.17,8.17 c 9.267,9.267 12.591,26.098 12.978,39.811 -0.114,1.583 -0.174,3.182 -0.174,4.795 v 0.744 c 0.162,14.265 -2.856,33.495 -13.009,43.648 l -8.172,8.17 c -10.154,10.154 -29.384,13.173 -43.649,13.012 -0.247,0 -0.496,0 -0.744,0 -36.214,0 -65.571,29.357 -65.57,65.57 0,17.39 6.91,34.067 19.207,46.364 12.296,12.297 28.973,19.206 46.363,19.207 z" /><path
         id="path25"
         style="fill:#04ff60;fill-opacity:1;stroke-width:10;paint-order:markers stroke fill"
         d="m 26169.139,13771.498 c 36.214,0 65.571,-29.357 65.57,-65.571 v -0.744 c -0.161,-14.264 2.859,-33.495 13.012,-43.648 l 8.17,-8.17 c 10.154,-10.154 29.386,-13.173 43.65,-13.012 0.248,0 0.495,0 0.743,0 15.738,0 30.148,-5.589 41.449,-14.832 0.127,-0.103 0.262,-0.195 0.389,-0.299 1.171,-0.973 2.28,-2.011 3.38,-3.062 0.443,-0.419 0.92,-0.793 1.352,-1.225 0.234,-0.234 0.467,-0.47 0.697,-0.707 11.861,-12.224 18.509,-28.597 18.51,-45.656 0,-36.214 -29.357,-65.571 -65.57,-65.57 -0.248,0 -0.497,0 -0.744,0 -14.265,0.161 -33.497,-2.859 -43.651,-13.012 l -8.17,-8.17 c -10.153,-10.154 -13.173,-29.386 -13.012,-43.651 v -0.742 c 0,-36.212 -29.355,-65.57 -65.568,-65.57 -36.214,0 -65.57,29.357 -65.57,65.57 0,36.213 29.356,65.57 65.568,65.571 0.248,0 0.497,0 0.744,0 14.265,-0.162 33.497,2.856 43.651,13.009 l 8.17,8.17 c 9.267,9.267 12.591,26.098 12.978,39.811 -0.114,1.583 -0.174,3.182 -0.174,4.795 v 0.744 c 0.162,14.265 -2.856,33.495 -13.009,43.648 l -8.172,8.17 c -10.154,10.154 -29.384,13.173 -43.649,13.012 -0.247,0 -0.496,0 -0.744,0 -36.214,0 -65.571,29.357 -65.57,65.57 0,17.39 6.91,34.067 19.207,46.364 12.296,12.297 28.973,19.206 46.363,19.207 z" /><circle
         style="fill:#fffffe;fill-opacity:1;stroke-width:10;paint-order:markers stroke fill"
         id="circle32"
         cx="-26037.783"
         cy="-13574.575"
         r="65.569748"
         transform="scale(-1)" /><circle
         style="opacity:0.5;fill:#fffffe;fill-opacity:1;stroke-width:10;paint-order:markers stroke fill;filter:url(#filter20)"
         id="circle33"
         cx="-2927.6296"
         cy="-8445.3027"
         r="65.569748"
         transform="rotate(180,11555.078,2564.6364)" /></g></g></svg>
